<svg xmlns="http://www.w3.org/2000/svg" xmlns:xlink="http://www.w3.org/1999/xlink" width="79" height="60" viewBox="0 0 79 60">
    <defs>
        <path id="a" d="M.008.114V37.73c0 2.35 1.921 4.255 4.29 4.255H61.58c2.467 0 4.466-1.98 4.466-4.428V11.2C66.046 5.078 61.043.114 54.87.114H.008z"/>
        <linearGradient id="b" x1="-.687%" x2="104.402%" y1="34.31%" y2="79.102%">
            <stop offset="0%" stop-color="#FFF"/>
            <stop offset="100%" stop-color="#CCA04C"/>
        </linearGradient>
        <linearGradient id="d" x1="50%" x2="50%" y1="0%" y2="100%">
            <stop offset="0%" stop-color="#E3BD67"/>
            <stop offset="100%" stop-color="#B58331"/>
        </linearGradient>
        <linearGradient id="e" x1="50%" x2="50%" y1="0%" y2="100%">
            <stop offset="0%" stop-color="#E3BD67"/>
            <stop offset="100%" stop-color="#B58331"/>
        </linearGradient>
    </defs>
    <g fill="none" fill-rule="evenodd">
        <g transform="translate(2.8 14.778)">
            <mask id="c" fill="#fff">
                <use xlink:href="#a"/>
            </mask>
            <path fill="url(#b)" fill-rule="nonzero" d="M.008.114V37.73c0 2.35 1.921 4.255 4.29 4.255H61.58c2.467 0 4.466-1.98 4.466-4.428V11.2C66.046 5.078 61.043.114 54.87.114H.008z" mask="url(#c)" opacity=".5"/>
        </g>
        <g stroke-linecap="round" stroke-linejoin="round" stroke-width="3">
            <path stroke="url(#d)" d="M67.555 7.234V40.88c0 3.897-3.203 7.038-7.131 7.038l-51.475-.263c-4.74-.025-8.58-3.83-8.61-8.534L.1 7.234C.1 3.337 3.3.159 7.231.159h53.192c3.923 0 7.131 3.183 7.131 7.075h.001zM41.184 20.835l18.3 19.295-18.3-19.295zM9.256 40.205L27.369 20.75 9.256 40.205z" transform="translate(2 10)"/>
            <path stroke="url(#e)" d="M4.431 2.655l26.496 18.558a5.636 5.636 0 0 0 6.765-.158l25.53-18.4" transform="translate(2 10)"/>
        </g>
        <g fill-rule="nonzero" transform="translate(49 1)">
            <circle cx="14.5" cy="14.5" r="14.5" fill="#21C17A" stroke="#FFF" stroke-width="2"/>
            <path fill="#000" d="M7 15.973L12.074 21 22 12.588 19.997 10l-7.86 6.42-2.517-2.737z"/>
            <path fill="#FFF" d="M7 15.973L12.074 21 22 12.588 19.997 10l-7.86 6.42-2.517-2.737z"/>
        </g>
    </g>
</svg>
